# xmcd CD database file
#
# Track frame offsets:
#	182
#	21870
#	44755
#	62837
#	84095
#	101605
#	122352
#	148932
#	170552
#	192110
#	208787
#	226640
#
# Disc length: 3215 seconds
#
# Revision: 0
# Processed by: cddbd v1.5.2PL0 Copyright (c) Steve Scherf et al.
# Submitted via: CDex 1.51
#
DISCID=9f0c8d0c
DTITLE=VARIOS ARTIST - LOS MERENGAZOS DE ÁNO
DYEAR=1991
DGENRE=Merengue
TTITLE0=POCHI Y SU COCOBAND/PINEA
TTITLE1=ORQUESTA NOCHE SABROSA/EL GATO
TTITLE2=RICARDO GUTHERREZ/INGRATA
TTITLE3=ORQUESTA NOCHE SABROSA/VIBORA DE MAR
TTITLE4=LA INDIA CANELA/EL RANCHO
TTITLE5=ORQUESTA NOCHE SABROSA/MA GUSTA TAMBIEN
TTITLE6=RAMON ORLANDO T LA ORQ INTERNACIONAL/NEW YORK NO DUERME
TTITLE7=FETITA LA GRANDE/LA PIMIENTA ES LA QUE PICA
TTITLE8=POCHI Y SU COCOBAND/LA NEGRA POLA
TTITLE9=DUENDE BAND/LA GORDITA
TTITLE10=ORQUESTA NOCHE SABROSA/PEGANDO EL PECHE
TTITLE11=EL CIEGUITO DE NAQUA/CAMBUENME LOS VASOS
EXTD=YEAR: 1991
EXTT0=
EXTT1=
EXTT2=
EXTT3=
EXTT4=
EXTT5=
EXTT6=
EXTT7=
EXTT8=
EXTT9=
EXTT10=
EXTT11=
PLAYORDER=
